<?xml version="1.0" encoding="utf-8"?>
<!-- Generator: Adobe Illustrator 24.3.0, SVG Export Plug-In . SVG Version: 6.00 Build 0)  -->
<svg version="1.1" id="레이어_1" xmlns="http://www.w3.org/2000/svg" xmlns:xlink="http://www.w3.org/1999/xlink" x="0px"
	 y="0px" viewBox="0 0 58.67 12.68" style="enable-background:new 0 0 58.67 12.68;" xml:space="preserve">
<style type="text/css">
	.st0{fill:#323130;}
</style>
<g>
	<path class="st0" d="M9.89,10.96c-0.27,0.29-0.97,0.99-2.05,1.38c-0.38,0.14-1.08,0.34-2.1,0.34c-1.71,0-3.01-0.56-4.14-1.86
		C0.48,9.54,0,8.03,0,6.36c0-0.39,0.02-1.32,0.36-2.34C1.14,1.61,3.21,0,5.79,0c2.32,0,3.71,1.26,4.27,1.91
		c0.63,0.72,1.52,2.12,1.5,4.43C11.57,7.09,11.48,9.23,9.89,10.96z M8.58,3.66c-0.63-1.03-1.59-1.59-2.8-1.59
		c-0.75,0-1.3,0.24-1.54,0.36C3.38,2.89,2.32,4.02,2.32,6.27c0,0.46,0.02,2.68,1.71,3.79c0.73,0.48,1.47,0.51,1.78,0.51
		c0.24,0,0.79-0.02,1.38-0.29c0.89-0.41,2.05-1.44,2.1-3.71C9.31,5.59,9.13,4.53,8.58,3.66z"/>
	<path class="st0" d="M15.98,2.32v3.01h5.04v1.93h-5.04v5.11h-2.24V0.31h7.98v2.02H15.98z"/>
	<path class="st0" d="M25.59,2.32v3.01h5.04v1.93h-5.04v5.11h-2.24V0.31h7.98v2.02H25.59z"/>
	<path class="st0" d="M32.94,12.37V0.31h2.22v12.07H32.94z"/>
	<path class="st0" d="M47.15,10.63c-0.56,0.72-1.88,2.05-4.31,2.05c-0.41,0-1.38-0.03-2.43-0.51c-1.37-0.65-3.21-2.29-3.21-5.86
		c0-0.65,0-2.38,1.11-3.96C38.89,1.5,40.28,0,42.93,0c2.31,0,3.52,1.15,4.07,1.91c0.39,0.58,0.63,1.18,0.84,1.81l-2.24,0.58
		c-0.02-0.15-0.09-0.55-0.31-0.96c-0.46-0.85-1.37-1.3-2.32-1.28c-0.68,0-1.16,0.21-1.4,0.32C40.67,2.84,39.64,4,39.64,6.25
		c0,0.34,0.02,1.78,0.72,2.85c0.24,0.36,0.53,0.67,0.87,0.89c0.72,0.5,1.44,0.55,1.76,0.55c0.94,0,1.64-0.38,2.22-1.09
		c0.24-0.29,0.43-0.65,0.48-0.74c0.07-0.15,0.12-0.29,0.22-0.6l2.14,0.89C47.8,9.62,47.56,10.1,47.15,10.63z"/>
	<path class="st0" d="M49.66,12.37V0.31h8.58v2.02h-6.36v2.84h5.83v1.95h-5.83v3.23h6.78v2.03H49.66z"/>
</g>
</svg>
