<?xml version="1.0" standalone="no"?>
<!DOCTYPE svg PUBLIC "-//W3C//DTD SVG 20010904//EN"
 "http://www.w3.org/TR/2001/REC-SVG-20010904/DTD/svg10.dtd">
<svg version="1.0" xmlns="http://www.w3.org/2000/svg"
 width="111.000000pt" height="23.000000pt" viewBox="0 0 111.000000 23.000000"
 preserveAspectRatio="xMidYMid meet">

<g transform="translate(0.000000,23.000000) scale(0.100000,-0.100000)"
fill="#000000" stroke="none">
<path d="M75 221 c-42 -18 -60 -50 -60 -107 0 -45 4 -58 28 -81 22 -22 37 -28
72 -28 62 0 96 34 103 103 4 44 1 53 -24 81 -31 34 -83 48 -119 32z m89 -53
c20 -29 20 -77 0 -106 -21 -30 -77 -30 -98 0 -38 53 -9 128 49 128 24 0 39 -7
49 -22z"/>
<path d="M270 115 c0 -108 1 -115 20 -115 17 0 20 7 20 50 l0 50 45 0 c33 0
45 4 45 15 0 11 -12 15 -45 15 -43 0 -45 1 -45 29 0 29 2 30 52 33 41 2 54 7
56 21 3 15 -6 17 -72 17 l-76 0 0 -115z"/>
<path d="M450 115 c0 -108 1 -115 20 -115 17 0 20 7 20 50 l0 50 45 0 c33 0
45 4 45 15 0 11 -12 15 -45 15 -43 0 -45 1 -45 29 0 29 2 30 52 33 41 2 54 7
56 21 3 15 -6 17 -72 17 l-76 0 0 -115z"/>
<path d="M630 115 c0 -108 1 -115 20 -115 19 0 20 7 20 115 0 108 -1 115 -20
115 -19 0 -20 -7 -20 -115z"/>
<path d="M765 221 c-59 -26 -82 -111 -46 -169 38 -59 120 -67 161 -15 19 24
19 28 5 36 -12 6 -22 3 -36 -12 -37 -40 -89 -19 -104 41 -7 26 8 66 29 80 19
13 66 9 72 -7 8 -19 44 -20 44 -2 0 36 -81 67 -125 48z"/>
<path d="M940 115 l0 -115 86 0 c76 0 85 2 82 17 -3 15 -16 19 -66 21 -61 3
-62 3 -62 32 0 30 1 30 56 30 47 0 55 3 52 18 -2 13 -15 18 -56 20 -47 3 -52
5 -52 27 0 22 4 24 57 27 46 2 59 7 61 21 3 15 -6 17 -77 17 l-81 0 0 -115z"/>
</g>
</svg>
