<?xml version="1.0" encoding="utf-8"?>
<!-- Generator: Adobe Illustrator 24.3.0, SVG Export Plug-In . SVG Version: 6.00 Build 0)  -->
<svg version="1.1" id="레이어_1" xmlns="http://www.w3.org/2000/svg" xmlns:xlink="http://www.w3.org/1999/xlink" x="0px"
	 y="0px" viewBox="0 0 78.07 12.68" style="enable-background:new 0 0 78.07 12.68;" xml:space="preserve">
<style type="text/css">
	.st0{fill:#323130;}
</style>
<g>
	<path class="st0" d="M9.95,10.63c-0.56,0.72-1.88,2.05-4.31,2.05c-0.41,0-1.38-0.03-2.43-0.51C1.85,11.52,0,9.88,0,6.31
		c0-0.65,0-2.38,1.11-3.96C1.69,1.5,3.08,0,5.73,0c2.31,0,3.52,1.15,4.07,1.91c0.39,0.58,0.63,1.18,0.84,1.81L8.39,4.31
		C8.37,4.15,8.31,3.76,8.08,3.35C7.62,2.5,6.72,2.05,5.76,2.07c-0.68,0-1.16,0.21-1.4,0.32C3.47,2.84,2.44,4,2.44,6.25
		c0,0.34,0.02,1.78,0.72,2.85C3.4,9.47,3.69,9.78,4.03,10c0.72,0.5,1.44,0.55,1.76,0.55c0.94,0,1.64-0.38,2.22-1.09
		C8.25,9.16,8.44,8.8,8.49,8.72c0.07-0.15,0.12-0.29,0.22-0.6l2.14,0.89C10.6,9.62,10.36,10.1,9.95,10.63z"/>
	<path class="st0" d="M21.84,10.96c-0.27,0.29-0.97,0.99-2.05,1.38c-0.38,0.14-1.08,0.34-2.1,0.34c-1.71,0-3.01-0.56-4.14-1.86
		c-1.13-1.28-1.61-2.79-1.61-4.46c0-0.39,0.02-1.32,0.36-2.34C13.09,1.61,15.16,0,17.74,0c2.32,0,3.71,1.26,4.27,1.91
		c0.63,0.72,1.52,2.12,1.5,4.43C23.52,7.09,23.43,9.23,21.84,10.96z M20.53,3.66c-0.63-1.03-1.59-1.59-2.8-1.59
		c-0.75,0-1.3,0.24-1.54,0.36c-0.85,0.46-1.91,1.59-1.91,3.85c0,0.46,0.02,2.68,1.71,3.79c0.73,0.48,1.47,0.51,1.78,0.51
		c0.24,0,0.79-0.02,1.38-0.29c0.89-0.41,2.05-1.44,2.1-3.71C21.26,5.59,21.08,4.53,20.53,3.66z"/>
	<path class="st0" d="M33.06,12.37l-5.28-8.46l0.14,8.46h-2.2V0.31h2.03l5.35,8.51l-0.27-8.51h2.22v12.07H33.06z"/>
	<path class="st0" d="M42.33,2.34v10.03h-2.26V2.34h-3.28V0.31h8.87v2.03H42.33z"/>
	<path class="st0" d="M54.48,12.37l-0.7-2.36h-4.53l-0.7,2.36h-2.43l4.08-12.07h2.56l4.12,12.07H54.48z M51.53,2.48l-1.67,5.55h3.33
		L51.53,2.48z"/>
	<path class="st0" d="M67.65,10.63c-0.56,0.72-1.88,2.05-4.31,2.05c-0.41,0-1.38-0.03-2.43-0.51c-1.37-0.65-3.21-2.29-3.21-5.86
		c0-0.65,0-2.38,1.11-3.96C59.39,1.5,60.78,0,63.42,0c2.31,0,3.52,1.15,4.07,1.91c0.39,0.58,0.63,1.18,0.84,1.81l-2.24,0.58
		C66.07,4.15,66,3.76,65.78,3.35c-0.46-0.85-1.37-1.3-2.32-1.28c-0.68,0-1.16,0.21-1.4,0.32C61.17,2.84,60.14,4,60.14,6.25
		c0,0.34,0.02,1.78,0.72,2.85c0.24,0.36,0.53,0.67,0.87,0.89c0.72,0.5,1.44,0.55,1.76,0.55c0.94,0,1.64-0.38,2.22-1.09
		c0.24-0.29,0.43-0.65,0.48-0.74c0.07-0.15,0.12-0.29,0.22-0.6l2.14,0.89C68.3,9.62,68.06,10.1,67.65,10.63z"/>
	<path class="st0" d="M74.74,2.34v10.03h-2.26V2.34H69.2V0.31h8.87v2.03H74.74z"/>
</g>
</svg>
