<?xml version="1.0" standalone="no"?>
<!DOCTYPE svg PUBLIC "-//W3C//DTD SVG 20010904//EN"
 "http://www.w3.org/TR/2001/REC-SVG-20010904/DTD/svg10.dtd">
<svg version="1.0" xmlns="http://www.w3.org/2000/svg"
 width="147.000000pt" height="23.000000pt" viewBox="0 0 147.000000 23.000000"
 preserveAspectRatio="xMidYMid meet">

<g transform="translate(0.000000,23.000000) scale(0.100000,-0.100000)"
fill="#000000" stroke="none">
<path d="M65 221 c-59 -26 -82 -111 -46 -169 38 -59 120 -67 161 -15 19 24 19
28 5 36 -12 6 -22 3 -36 -12 -37 -40 -89 -19 -104 41 -7 26 8 66 29 80 19 13
66 9 72 -7 8 -19 44 -20 44 -2 0 36 -81 67 -125 48z"/>
<path d="M295 221 c-42 -18 -60 -50 -60 -107 0 -45 4 -58 28 -81 22 -22 37
-28 72 -28 62 0 96 34 103 103 4 44 1 53 -24 81 -31 34 -83 48 -119 32z m89
-53 c20 -29 20 -77 0 -106 -21 -30 -77 -30 -98 0 -38 53 -9 128 49 128 24 0
39 -7 49 -22z"/>
<path d="M490 115 c0 -108 1 -115 20 -115 17 0 19 8 22 76 l3 75 45 -75 c29
-49 51 -76 62 -76 16 0 18 11 18 115 0 111 -1 115 -21 115 -21 0 -22 -3 -16
-80 3 -44 4 -80 2 -80 -2 0 -25 36 -52 80 -31 52 -54 80 -65 80 -16 0 -18 -12
-18 -115z"/>
<path d="M690 210 c0 -16 7 -20 30 -20 l30 0 0 -95 c0 -88 1 -95 20 -95 19 0
20 7 20 95 l0 95 30 0 c23 0 30 4 30 20 0 18 -7 20 -80 20 -73 0 -80 -2 -80
-20z"/>
<path d="M906 122 c-20 -59 -36 -110 -36 -115 0 -17 38 -5 43 13 8 29 93 29
102 0 4 -11 15 -20 27 -20 12 0 18 5 15 13 -2 6 -19 58 -38 115 -29 88 -36
102 -55 102 -19 0 -27 -14 -58 -108z m83 -24 c1 -13 -7 -18 -29 -18 -16 0 -30
2 -30 4 0 3 17 57 27 86 6 16 31 -41 32 -72z"/>
<path d="M1145 221 c-59 -26 -82 -111 -46 -169 38 -59 120 -67 161 -15 19 24
19 28 5 36 -12 6 -22 3 -36 -12 -37 -40 -89 -19 -104 41 -7 26 8 66 29 80 19
13 66 9 72 -7 8 -19 44 -20 44 -2 0 36 -81 67 -125 48z"/>
<path d="M1300 210 c0 -16 7 -20 30 -20 l30 0 0 -95 c0 -88 1 -95 20 -95 19 0
20 7 20 95 l0 95 30 0 c23 0 30 4 30 20 0 18 -7 20 -80 20 -73 0 -80 -2 -80
-20z"/>
</g>
</svg>
