<?xml version="1.0" standalone="no"?>
<!DOCTYPE svg PUBLIC "-//W3C//DTD SVG 20010904//EN"
 "http://www.w3.org/TR/2001/REC-SVG-20010904/DTD/svg10.dtd">
<svg version="1.0" xmlns="http://www.w3.org/2000/svg"
 width="570.000000pt" height="300.000000pt" viewBox="0 0 570.000000 300.000000"
 preserveAspectRatio="xMidYMid meet">

<g transform="translate(0.000000,300.000000) scale(0.100000,-0.100000)"
fill="#000000" stroke="none">
<path d="M271 2973 c-12 -25 -148 -338 -237 -546 l-33 -78 126 3 126 3 17 50
17 50 126 3 126 3 17 -56 18 -55 123 0 c68 0 123 3 123 8 -1 4 -63 149 -138
322 l-137 315 -131 3 -131 3 -12 -28z m183 -267 c20 -54 36 -100 36 -102 0 -2
-34 -4 -75 -4 -41 0 -75 1 -75 3 0 3 55 169 65 196 8 20 10 16 49 -93z"/>
<path d="M870 2675 l0 -325 105 0 c98 0 105 1 105 20 0 24 -3 25 51 -2 52 -26
171 -31 233 -9 51 18 115 76 137 126 43 94 13 246 -60 308 -71 60 -207 72
-308 27 -25 -11 -47 -20 -49 -20 -2 0 -4 45 -4 100 l0 100 -105 0 -105 0 0
-325z m403 1 c56 -52 40 -153 -30 -182 -83 -35 -163 15 -163 102 0 37 5 51 29
75 25 25 37 29 84 29 43 0 59 -5 80 -24z"/>
<path d="M3130 2895 l0 -85 -35 0 -35 0 0 -60 0 -60 35 0 34 0 3 -146 3 -147
28 -21 c24 -18 46 -21 143 -25 l114 -3 0 71 0 71 -28 0 c-45 0 -52 16 -52 112
l0 88 40 0 40 0 0 60 0 60 -40 0 -40 0 0 85 0 85 -105 0 -105 0 0 -85z"/>
<path d="M1804 2836 c-151 -35 -226 -115 -226 -242 0 -158 128 -249 352 -249
175 1 285 49 334 147 69 138 -1 286 -157 333 -74 22 -228 28 -303 11z m206
-131 c59 -30 80 -127 39 -179 -44 -55 -106 -69 -179 -40 -49 20 -70 56 -70
120 0 39 5 51 34 80 31 31 40 34 90 34 32 0 70 -7 86 -15z"/>
<path d="M2370 2662 c0 -168 1 -182 23 -223 35 -66 96 -94 208 -94 77 0 92 3
147 32 l62 32 0 -30 0 -29 105 0 105 0 0 245 0 245 -105 0 -105 0 0 -130 c0
-90 -4 -141 -14 -165 -35 -84 -176 -87 -205 -4 -6 18 -11 92 -11 165 l0 134
-105 0 -105 0 0 -178z"/>
<path d="M60 1515 l0 -325 110 0 110 0 2 207 3 208 76 -205 75 -205 90 -3 89
-2 75 205 75 206 3 -205 2 -206 115 0 115 0 0 325 0 325 -154 0 -153 0 -78
-202 c-43 -112 -81 -206 -84 -211 -4 -4 -43 86 -88 200 l-80 208 -151 3 -152
3 0 -326z"/>
<path d="M3960 1785 l0 -55 105 0 105 0 0 55 0 55 -105 0 -105 0 0 -55z"/>
<path d="M1305 1694 c-11 -2 -44 -9 -73 -15 -29 -6 -66 -22 -83 -37 -29 -24
-59 -76 -59 -102 0 -6 38 -10 100 -10 85 0 104 3 121 19 55 51 209 30 209 -29
0 -15 -16 -18 -122 -25 -209 -12 -279 -33 -310 -96 -38 -73 -12 -151 64 -191
36 -19 58 -22 133 -22 84 1 125 10 228 49 13 6 17 2 17 -19 l0 -26 110 0 c106
0 110 1 100 19 -6 11 -10 90 -10 185 0 92 -5 177 -11 193 -28 76 -95 102 -274
108 -66 2 -129 2 -140 -1z m215 -295 c0 -45 -75 -88 -155 -89 -55 0 -75 12
-75 46 0 41 28 50 153 53 49 0 77 -3 77 -10z"/>
<path d="M2765 1694 c-11 -2 -44 -9 -73 -15 -29 -6 -66 -22 -83 -37 -29 -24
-59 -76 -59 -102 0 -6 38 -10 100 -10 85 0 104 3 121 19 55 51 209 30 209 -29
0 -15 -16 -18 -122 -25 -209 -12 -279 -33 -310 -96 -38 -73 -12 -151 64 -191
36 -19 58 -22 133 -22 84 1 125 10 228 49 13 6 17 2 17 -19 l0 -26 110 0 c106
0 110 1 100 19 -6 11 -10 90 -10 185 0 92 -5 177 -11 193 -28 76 -95 102 -274
108 -66 2 -129 2 -140 -1z m215 -295 c0 -45 -75 -88 -155 -89 -55 0 -75 12
-75 46 0 41 28 50 153 53 49 0 77 -3 77 -10z"/>
<path d="M1980 1677 c-106 -30 -166 -99 -177 -200 -14 -135 76 -236 224 -254
54 -6 142 9 187 32 15 8 31 15 33 15 3 0 3 -23 1 -52 -4 -37 -12 -57 -27 -70
-51 -41 -161 -31 -183 18 -11 23 -14 24 -119 24 l-108 0 11 -32 c29 -87 131
-145 273 -155 160 -10 299 41 343 127 21 42 22 55 22 297 l0 253 -105 0 c-98
0 -105 -1 -105 -20 0 -24 3 -24 -53 0 -59 26 -158 34 -217 17z m219 -141 c26
-14 51 -53 51 -81 0 -52 -52 -95 -115 -95 -116 0 -157 125 -60 178 28 16 91
15 124 -2z"/>
<path d="M4600 1675 c-25 -8 -62 -24 -82 -35 l-38 -21 0 30 0 31 -105 0 -105
0 0 -245 0 -245 105 0 105 0 0 133 c0 106 4 139 18 167 33 66 118 81 174 31
l33 -29 3 -151 3 -151 105 0 104 0 0 180 c0 202 -6 231 -62 273 -59 45 -170
59 -258 32z"/>
<path d="M5220 1680 c-143 -24 -230 -116 -230 -242 1 -142 85 -222 265 -250
90 -14 219 0 296 33 52 23 125 91 115 108 -5 7 -46 11 -109 11 -83 0 -110 -4
-142 -20 -66 -34 -140 -20 -183 35 -43 55 -44 55 219 55 l242 0 -6 45 c-17
118 -103 198 -242 224 -65 12 -157 13 -225 1z m163 -121 c35 -9 77 -43 77 -61
0 -4 -54 -8 -120 -8 -66 0 -120 4 -120 8 0 19 28 44 65 57 49 17 51 17 98 4z"/>
<path d="M3290 1615 l0 -64 146 -3 147 -3 -162 -109 -161 -110 0 -68 0 -68
310 0 311 0 -3 68 -3 67 -153 5 -154 5 156 105 156 105 0 68 0 67 -295 0 -295
0 0 -65z"/>
<path d="M3960 1435 l0 -245 105 0 105 0 0 245 0 245 -105 0 -105 0 0 -245z"/>
<path d="M10 610 l0 -70 115 0 115 0 0 -255 0 -255 115 0 115 0 0 255 0 255
115 0 115 0 0 70 0 70 -345 0 -345 0 0 -70z"/>
<path d="M2290 355 l0 -325 105 0 105 0 0 325 0 325 -105 0 -105 0 0 -325z"/>
<path d="M2770 530 c-121 -21 -180 -70 -180 -150 0 -92 48 -121 264 -160 121
-22 126 -24 126 -49 0 -56 -129 -63 -185 -11 -20 19 -32 20 -121 18 -98 -3
-99 -3 -102 -29 -5 -45 39 -86 121 -111 94 -29 284 -32 362 -5 160 55 196 216
60 267 -16 6 -86 20 -156 31 -150 23 -159 25 -159 50 0 28 36 42 98 37 41 -4
60 -11 73 -26 19 -24 55 -27 167 -16 l61 7 -20 38 c-11 22 -37 50 -57 64 -69
46 -229 66 -352 45z"/>
<path d="M964 516 c-151 -35 -226 -115 -226 -242 0 -158 128 -249 352 -249
175 1 285 49 334 147 69 138 -1 286 -157 333 -74 22 -228 28 -303 11z m206
-131 c59 -30 80 -127 39 -179 -44 -55 -106 -69 -179 -40 -49 20 -70 56 -70
120 0 39 5 51 34 80 31 31 40 34 90 34 32 0 70 -7 86 -15z"/>
<path d="M1724 516 c-151 -35 -226 -115 -226 -242 0 -158 128 -249 352 -249
175 1 285 49 334 147 69 138 -1 286 -157 333 -74 22 -228 28 -303 11z m206
-131 c59 -30 80 -127 39 -179 -44 -55 -106 -69 -179 -40 -49 20 -70 56 -70
120 0 39 5 51 34 80 31 31 40 34 90 34 32 0 70 -7 86 -15z"/>
</g>
</svg>
