<?xml version="1.0" encoding="utf-8"?>
<!-- Generator: Adobe Illustrator 24.3.0, SVG Export Plug-In . SVG Version: 6.00 Build 0)  -->
<svg version="1.1" id="레이어_1" xmlns="http://www.w3.org/2000/svg" xmlns:xlink="http://www.w3.org/1999/xlink" x="0px"
	 y="0px" viewBox="0 0 82.6 12.68" style="enable-background:new 0 0 82.6 12.68;" xml:space="preserve">
<style type="text/css">
	.st0{fill:#323130;}
</style>
<g>
	<path class="st0" d="M9.23,11.43c-1.45,1.23-3.4,1.25-3.95,1.25c-0.72,0-3.03-0.03-4.7-1.79C0.38,10.66,0.15,10.37,0,10.1l1.9-1.32
		c0.53,0.79,1.52,1.81,3.74,1.81c0.1,0,0.53,0,0.89-0.08c0.26-0.05,1.44-0.38,1.44-1.5c0-0.12-0.02-0.44-0.22-0.72
		c-0.41-0.55-1.5-0.7-2.1-0.84L4.2,7.13C3.59,6.99,2.92,6.85,2.38,6.56C1.81,6.27,0.65,5.5,0.65,3.76c0-0.27,0.03-1.06,0.46-1.78
		C1.66,1.06,2.97,0,5.42,0c1.08,0,3.2,0.17,4.87,2.44L8.43,3.83C8.05,3.23,7.19,2.03,5.3,2.03c-0.12,0-1.64-0.02-2.14,0.92
		C3.06,3.14,3.02,3.32,3.02,3.5c0,0.21,0.05,0.38,0.15,0.55c0.29,0.5,0.96,0.65,2.07,0.89l1.25,0.27c1.15,0.26,2.41,0.6,3.21,1.54
		c0.34,0.38,0.7,0.92,0.7,2.03C10.41,9.88,10.07,10.72,9.23,11.43z"/>
	<path class="st0" d="M16.92,2.34v10.03h-2.26V2.34h-3.28V0.31h8.87v2.03H16.92z"/>
	<path class="st0" d="M31.33,10.96c-0.27,0.29-0.97,0.99-2.05,1.38c-0.38,0.14-1.08,0.34-2.1,0.34c-1.71,0-3.01-0.56-4.14-1.86
		c-1.13-1.28-1.61-2.79-1.61-4.46c0-0.39,0.02-1.32,0.36-2.34C22.58,1.61,24.65,0,27.23,0c2.32,0,3.71,1.26,4.27,1.91
		c0.63,0.72,1.52,2.12,1.5,4.43C33.01,7.09,32.92,9.23,31.33,10.96z M30.02,3.66c-0.63-1.03-1.59-1.59-2.8-1.59
		c-0.75,0-1.3,0.24-1.54,0.36c-0.85,0.46-1.91,1.59-1.91,3.85c0,0.46,0.02,2.68,1.71,3.79c0.74,0.48,1.47,0.51,1.78,0.51
		c0.24,0,0.79-0.02,1.38-0.29c0.89-0.41,2.05-1.44,2.1-3.71C30.75,5.59,30.56,4.53,30.02,3.66z"/>
	<path class="st0" d="M44.38,10.63c-0.56,0.72-1.88,2.05-4.31,2.05c-0.41,0-1.38-0.03-2.43-0.51c-1.37-0.65-3.21-2.29-3.21-5.86
		c0-0.65,0-2.38,1.11-3.96C36.12,1.5,37.51,0,40.16,0c2.31,0,3.52,1.15,4.07,1.91c0.39,0.58,0.63,1.18,0.84,1.81l-2.24,0.58
		c-0.02-0.15-0.08-0.55-0.31-0.96c-0.46-0.85-1.37-1.3-2.32-1.28c-0.68,0-1.16,0.21-1.4,0.32C37.9,2.84,36.88,4,36.88,6.25
		c0,0.34,0.02,1.78,0.72,2.85c0.24,0.36,0.53,0.67,0.87,0.89c0.72,0.5,1.44,0.55,1.76,0.55c0.94,0,1.64-0.38,2.22-1.09
		c0.24-0.29,0.43-0.65,0.48-0.74c0.07-0.15,0.12-0.29,0.22-0.6l2.14,0.89C45.03,9.62,44.79,10.1,44.38,10.63z"/>
	<path class="st0" d="M54.35,12.37L51.13,6.7l-1.96,2.26v3.42h-2.24V0.31h2.24v5.54L54,0.31h2.65L52.7,4.85l4.22,7.52H54.35z"/>
	<path class="st0" d="M58.33,12.37V0.31h2.22v12.07H58.33z"/>
	<path class="st0" d="M71.58,11.43c-1.45,1.23-3.4,1.25-3.95,1.25c-0.72,0-3.02-0.03-4.7-1.79c-0.21-0.22-0.43-0.51-0.58-0.79
		l1.9-1.32c0.53,0.79,1.52,1.81,3.74,1.81c0.1,0,0.53,0,0.89-0.08c0.26-0.05,1.44-0.38,1.44-1.5c0-0.12-0.02-0.44-0.22-0.72
		c-0.41-0.55-1.5-0.7-2.1-0.84l-1.44-0.32c-0.62-0.14-1.28-0.27-1.83-0.56C64.16,6.27,63,5.5,63,3.76c0-0.27,0.04-1.06,0.46-1.78
		C64.01,1.06,65.32,0,67.77,0c1.08,0,3.2,0.17,4.87,2.44l-1.86,1.38c-0.38-0.6-1.23-1.79-3.13-1.79c-0.12,0-1.64-0.02-2.14,0.92
		c-0.1,0.19-0.14,0.36-0.14,0.55c0,0.21,0.05,0.38,0.15,0.55c0.29,0.5,0.96,0.65,2.07,0.89l1.25,0.27c1.14,0.26,2.41,0.6,3.21,1.54
		c0.34,0.38,0.7,0.92,0.7,2.03C72.76,9.88,72.41,10.72,71.58,11.43z"/>
	<path class="st0" d="M79.27,2.34v10.03h-2.26V2.34h-3.28V0.31h8.87v2.03H79.27z"/>
</g>
</svg>
