<?xml version="1.0" encoding="utf-8"?>
<!-- Generator: Adobe Illustrator 24.3.0, SVG Export Plug-In . SVG Version: 6.00 Build 0)  -->
<svg version="1.1" id="레이어_1" xmlns="http://www.w3.org/2000/svg" xmlns:xlink="http://www.w3.org/1999/xlink" x="0px"
	 y="0px" viewBox="0 0 679.51 45.02" style="enable-background:new 0 0 679.51 45.02;" xml:space="preserve">
<g>
	<path d="M30.67,34.7l-1.87-5.65H15.53l-1.87,5.65H0L14.99,0h14.15l15.04,34.7H30.67z M22.12,9.63l-3.98,11.75h8.06L22.12,9.63z"/>
	<path d="M80.06,28.65c-2.56,4.52-7.91,6.49-12.83,6.49c-4.77,0-7.47-1.72-9.14-2.75v2.31H46.45V0h11.6l0.05,10.91
		c0.64-0.44,1.57-1.08,2.26-1.43c1.38-0.74,3.98-1.62,7.76-1.62c1.47,0,5.31,0.1,8.8,2.7c4.67,3.54,4.87,9.14,4.87,10.91
		C81.79,22.46,81.69,25.8,80.06,28.65z M65.81,15.88c-0.44-0.1-0.98-0.2-2.01-0.15c-0.39,0-1.38,0-2.46,0.44
		c-2.21,0.88-3.39,3.1-3.39,5.36c0.05,3.59,2.6,6,6.04,6c0.39,0,1.38-0.05,2.41-0.44c1.38-0.54,3.64-1.92,3.64-5.65
		C70.04,17.55,67.24,16.22,65.81,15.88z"/>
	<path d="M114.86,33.27c-2.02,0.88-5.9,2.11-11.35,2.11c-6.73,0-11.06-1.72-13.42-3.19c-0.54-0.34-2.01-1.28-3.19-2.75
		c-1.03-1.23-2.65-3.74-2.65-7.77c0-6.05,3.64-9.09,5.5-10.32c2.21-1.47,6.54-3.29,12.93-3.39c1.18,0,4.37,0,7.81,0.69
		c1.52,0.29,6.19,1.28,9.44,5.06c1.08,1.23,2.85,3.78,2.85,7.91C122.78,29.15,117.08,32.24,114.86,33.27z M109.95,17.99
		c-1.92-3.29-6-3.24-6.93-3.19c-0.98,0.05-1.82,0.15-2.75,0.49c-2.65,0.98-4.03,3.44-4.03,6.24c0,0.64,0.1,2.95,1.57,4.57
		c1.92,2.16,5.31,2.26,5.95,2.26c2.65,0,5.36-1.28,6.49-3.74c0.25-0.59,0.54-1.57,0.54-3.1C110.78,20.94,110.78,19.41,109.95,17.99z
		"/>
	<path d="M150.25,34.7l-0.05-3.54c-0.74,0.64-1.18,1.03-1.97,1.57c-1.67,1.08-4.72,2.56-9.58,2.56c-3.98,0-8.31-1.13-10.62-4.67
		c-0.29-0.49-0.98-1.62-1.33-3.19c-0.29-1.23-0.29-2.6-0.29-2.95V8.65h11.65v12.98c0,0.34-0.1,1.52,0.25,2.6
		c0.98,3.34,4.67,3.44,5.5,3.44c0.54,0,3.15-0.1,4.67-1.82c1.52-1.67,1.42-4.47,1.42-4.96V8.65h11.6V34.7H150.25z"/>
	<path d="M175.12,34.7c-1.23,0-2.46-0.05-3.69-0.2c-0.34-0.05-2.46-0.34-3.69-1.82c-0.79-0.93-1.03-2.02-0.98-4.03l0.25-12.19h-3.69
		V9.73h3.74l0.15-8.8h11.16v8.8h4.28v6.73h-4.23v8.6c0,0.29,0.05,0.69,0.15,0.98c0.29,0.93,1.03,1.28,2.7,1.28h1.38v7.37H175.12z"/>
	<path d="M239.9,34.7V12.48L231.7,34.7h-9.58l-8.16-22.12V34.7h-12.19V0h16.46l8.75,22.66L235.73,0h16.42v34.7H239.9z"/>
	<path d="M280.9,34.7c-0.29-1.18-0.34-1.28-0.44-2.51c-1.77,0.79-6.88,3.24-12.93,3.24c-8.45,0-11.45-4.33-11.45-8.36
		c0-0.64,0.1-2.7,1.33-4.37c1.47-2.06,4.23-2.95,4.82-3.1c4.47-1.33,13.47-1.43,18.04-1.52c0-0.84-0.05-1.43-0.54-2.11
		c-1.13-1.43-3.49-1.57-5.06-1.57c-1.62,0-4.62,0.2-5.85,1.47c-0.29,0.29-0.34,0.49-0.49,0.88h-11.16c0.25-1.43,0.84-5.01,4.57-6.93
		c2.31-1.18,6.44-2.06,12.53-2.06c0.93,0,5.65,0,9.44,0.74c0.69,0.15,3.78,0.59,5.7,2.56c2.31,2.31,2.11,5.26,2.11,6.24v13.61
		c0,2.31,0.49,2.9,1.42,3.78H280.9z M272.69,23.2c-2.31,0.2-3.59,0.44-4.33,1.33c-0.2,0.2-0.54,0.69-0.54,1.43
		c0,0.59,0.25,0.98,0.34,1.13c0.54,0.84,1.62,1.47,3.69,1.47c0.93,0,3.15-0.2,5.41-1.43c0.25-0.15,1.23-0.69,1.92-1.47
		c0.79-0.88,0.98-1.72,1.23-2.9C277.85,22.9,275.25,22.95,272.69,23.2z"/>
	<path d="M330.34,35.14c-0.2,1.52-0.74,4.03-3.59,6.19c-2.65,2.01-6.83,3.69-14.25,3.69c-8.55,0-13.42-3.05-15.38-6.29
		c-1.03-1.67-1.28-3.54-1.38-4.13h11.75c0.05,0.93,0.29,1.67,0.98,2.36c1.13,1.18,2.75,1.42,4.37,1.42c3.59,0,5.16-1.18,5.8-2.9
		c0.25-0.64,0.34-1.18,0.34-2.46c0-0.88-0.05-1.82-0.05-2.7c-0.34,0.2-1.03,0.69-1.87,1.08c-1.33,0.59-4.38,1.57-8.31,1.57
		c-0.74,0-2.56-0.05-4.62-0.64c-2.65-0.79-9.09-3.44-9.09-11.5c0-6.14,3.78-9.39,5.75-10.57c1.38-0.84,4.37-2.11,8.55-2.11
		c3.78,0,6.49,1.08,7.81,1.77c0.59,0.29,1.18,0.69,1.77,1.08V8.65h11.6v23.89C330.54,33.47,330.49,34.26,330.34,35.14z
		 M318.06,17.69c-0.74-0.88-2.56-2.11-5.46-2.02c-4.42,0.15-5.65,3.15-5.65,4.96c0,0.34,0.05,1.08,0.44,1.87
		c0.59,1.28,2.26,3.05,5.7,3.05c3,0,5.9-1.72,5.9-5.06C318.99,20.05,318.94,18.82,318.06,17.69z"/>
	<path d="M358.75,34.7c-0.29-1.18-0.34-1.28-0.44-2.51c-1.77,0.79-6.88,3.24-12.93,3.24c-8.45,0-11.45-4.33-11.45-8.36
		c0-0.64,0.1-2.7,1.33-4.37c1.47-2.06,4.23-2.95,4.82-3.1c4.47-1.33,13.47-1.43,18.04-1.52c0-0.84-0.05-1.43-0.54-2.11
		c-1.13-1.43-3.49-1.57-5.06-1.57c-1.62,0-4.62,0.2-5.85,1.47c-0.29,0.29-0.34,0.49-0.49,0.88h-11.16c0.25-1.43,0.84-5.01,4.57-6.93
		c2.31-1.18,6.44-2.06,12.53-2.06c0.93,0,5.65,0,9.44,0.74c0.69,0.15,3.78,0.59,5.7,2.56c2.31,2.31,2.11,5.26,2.11,6.24v13.61
		c0,2.31,0.49,2.9,1.42,3.78H358.75z M350.54,23.2c-2.31,0.2-3.59,0.44-4.33,1.33c-0.2,0.2-0.54,0.69-0.54,1.43
		c0,0.59,0.25,0.98,0.34,1.13c0.54,0.84,1.62,1.47,3.69,1.47c0.93,0,3.15-0.2,5.41-1.43c0.25-0.15,1.23-0.69,1.92-1.47
		c0.79-0.88,0.98-1.72,1.23-2.9C355.71,22.9,353.1,22.95,350.54,23.2z"/>
	<path d="M388.93,27.33h17v7.37h-32.93v-7.42l17.15-11.35h-15.83V8.65h31.75v7.32L388.93,27.33z"/>
	<path d="M410.12,6.09V0h11.55v6.09H410.12z M410.17,34.7V8.65h11.5V34.7H410.17z"/>
	<path d="M450.12,34.7V21.82c0-0.29,0-1.52-0.39-2.6c-1.13-3.39-4.42-3.64-5.5-3.64c-4.03,0-5.36,2.8-5.75,4.32
		c-0.25,0.84-0.25,1.33-0.25,2.21V34.7h-11.7V8.65h11.7v3.29c0.69-0.49,1.38-0.98,2.06-1.38c4.03-2.36,7.37-2.41,9.24-2.41
		c2.9,0,5.41,0.29,7.91,1.77c0.29,0.2,1.23,0.74,1.97,1.52c0.93,0.98,1.47,2.16,1.62,2.56c0.64,1.67,0.74,3.44,0.74,7.03V34.7
		H450.12z"/>
	<path d="M476.32,23.3c0.05,0.29,0.2,0.93,0.54,1.67c1.67,3.54,5.6,3.88,6.68,3.88c2.26,0,4.18-0.98,4.77-1.43
		c0.49-0.34,0.93-0.79,1.08-0.93l12.09,0.59c-0.49,0.98-1.52,2.75-3.74,4.42c-0.34,0.29-1.33,0.98-2.51,1.57
		c-4.72,2.26-11.01,2.36-12.24,2.36c-5.6,0-12.19-1.28-15.97-5.9c-1.08-1.33-2.7-3.78-2.7-8.01c0-1.38,0.2-4.77,2.6-7.81
		c1.03-1.28,2.16-2.11,2.65-2.46c2.75-1.92,6.29-3.39,13.52-3.34c5.5,0,11.35,0.84,15.38,5.06c0.74,0.79,2.36,2.65,3.15,5.55
		c0.44,1.62,0.49,3.1,0.54,4.77H476.32z M483.35,14.6c-0.79,0-3.74,0.05-5.55,2.21c-0.59,0.74-0.74,1.13-1.08,1.97h13.27
		C489.35,17.01,487.73,14.6,483.35,14.6z"/>
	<path d="M537.76,7.77V34.7h-12.48V7.77h-12.34V0h37.11v7.77H537.76z"/>
	<path d="M578.36,33.27c-2.02,0.88-5.9,2.11-11.35,2.11c-6.73,0-11.06-1.72-13.42-3.19c-0.54-0.34-2.01-1.28-3.19-2.75
		c-1.03-1.23-2.65-3.74-2.65-7.77c0-6.05,3.64-9.09,5.5-10.32c2.21-1.47,6.54-3.29,12.93-3.39c1.18,0,4.37,0,7.81,0.69
		c1.52,0.29,6.19,1.28,9.44,5.06c1.08,1.23,2.85,3.78,2.85,7.91C586.27,29.15,580.57,32.24,578.36,33.27z M573.44,17.99
		c-1.92-3.29-6-3.24-6.93-3.19c-0.98,0.05-1.82,0.15-2.75,0.49c-2.65,0.98-4.03,3.44-4.03,6.24c0,0.64,0.1,2.95,1.57,4.57
		c1.92,2.16,5.31,2.26,5.95,2.26c2.65,0,5.36-1.28,6.49-3.74c0.25-0.59,0.54-1.57,0.54-3.1C574.28,20.94,574.28,19.41,573.44,17.99z
		"/>
	<path d="M619.3,33.27c-2.02,0.88-5.9,2.11-11.35,2.11c-6.73,0-11.06-1.72-13.42-3.19c-0.54-0.34-2.01-1.28-3.19-2.75
		c-1.03-1.23-2.65-3.74-2.65-7.77c0-6.05,3.64-9.09,5.5-10.32c2.21-1.47,6.54-3.29,12.93-3.39c1.18,0,4.37,0,7.81,0.69
		c1.52,0.29,6.19,1.28,9.44,5.06c1.08,1.23,2.85,3.78,2.85,7.91C627.21,29.15,621.51,32.24,619.3,33.27z M614.39,17.99
		c-1.92-3.29-6-3.24-6.93-3.19c-0.98,0.05-1.82,0.15-2.75,0.49c-2.65,0.98-4.03,3.44-4.03,6.24c0,0.64,0.1,2.95,1.57,4.57
		c1.92,2.16,5.31,2.26,5.95,2.26c2.65,0,5.36-1.28,6.49-3.74c0.25-0.59,0.54-1.57,0.54-3.1C615.22,20.94,615.22,19.41,614.39,17.99z
		"/>
	<path d="M630.76,34.7V0h11.65v34.7H630.76z"/>
	<path d="M677.15,31.31c-2.6,2.51-6.59,4.23-14.2,4.23c-1.57,0-5.55,0-9.88-1.13c-0.59-0.15-3.93-0.88-5.8-2.95
		c-1.23-1.33-1.67-2.95-1.82-4.67l11.7-0.54c0.2,0.74,0.39,1.08,0.64,1.38c1.18,1.33,3.83,1.72,5.36,1.72
		c1.92,0,3.19-0.39,3.83-0.88c0.59-0.44,0.74-1.13,0.74-1.43c0-0.44-0.25-0.88-0.64-1.13c-1.13-0.74-4.62-1.03-8.4-1.67
		c-1.77-0.29-3.49-0.64-5.21-1.13c-1.87-0.49-3.98-1.13-5.31-2.6c-0.64-0.69-1.47-2.06-1.47-4.28c0-4.33,3.54-6,4.77-6.59
		c2.36-1.08,5.75-1.87,11.5-1.87c7.86,0,12.19,1.92,14.55,4.77c0.25,0.29,0.98,1.23,1.47,2.31c0.15,0.34,0.29,0.84,0.49,1.62
		l-11.5,0.49c-0.1-0.49-0.15-0.54-0.29-0.79c-0.64-1.13-2.56-2.11-5.46-2.06c-2.46,0-4.13,0.79-4.13,2.11c0,0.2,0.05,0.64,0.49,0.98
		c1.08,0.88,5.5,1.28,6.83,1.43c1.92,0.25,3.83,0.49,5.7,0.79c0.25,0.05,3.59,0.49,5.46,1.52c2.7,1.52,2.95,4.08,2.95,5.16
		C679.51,27.38,679.27,29.24,677.15,31.31z"/>
</g>
</svg>
