<?xml version="1.0" standalone="no"?>
<!DOCTYPE svg PUBLIC "-//W3C//DTD SVG 20010904//EN"
 "http://www.w3.org/TR/2001/REC-SVG-20010904/DTD/svg10.dtd">
<svg version="1.0" xmlns="http://www.w3.org/2000/svg"
 width="156.000000pt" height="23.000000pt" viewBox="0 0 156.000000 23.000000"
 preserveAspectRatio="xMidYMid meet">

<g transform="translate(0.000000,23.000000) scale(0.100000,-0.100000)"
fill="#000000" stroke="none">
<path d="M61 217 c-33 -17 -45 -39 -38 -69 7 -26 34 -41 94 -53 39 -8 49 -21
33 -40 -15 -18 -60 -19 -95 -3 -17 8 -29 8 -36 1 -15 -15 24 -44 69 -50 111
-15 156 100 49 127 -54 13 -72 24 -72 41 0 20 63 24 84 5 13 -12 20 -13 29 -4
18 18 15 26 -18 43 -35 18 -67 19 -99 2z"/>
<path d="M220 210 c0 -16 7 -20 30 -20 l30 0 0 -95 c0 -88 1 -95 20 -95 19 0
20 7 20 95 l0 95 30 0 c23 0 30 4 30 20 0 18 -7 20 -80 20 -73 0 -80 -2 -80
-20z"/>
<path d="M475 221 c-42 -18 -60 -50 -60 -107 0 -45 4 -58 28 -81 22 -22 37
-28 72 -28 62 0 96 34 103 103 4 44 1 53 -24 81 -31 34 -83 48 -119 32z m89
-53 c20 -29 20 -77 0 -106 -21 -30 -77 -30 -98 0 -38 53 -9 128 49 128 24 0
39 -7 49 -22z"/>
<path d="M715 221 c-59 -26 -82 -111 -46 -169 38 -59 120 -67 161 -15 19 24
19 28 5 36 -12 6 -22 3 -36 -12 -37 -40 -89 -19 -104 41 -7 26 8 66 29 80 19
13 66 9 72 -7 8 -19 44 -20 44 -2 0 36 -81 67 -125 48z"/>
<path d="M890 115 c0 -108 1 -115 20 -115 16 0 20 7 20 34 0 19 8 44 18 57
l19 22 29 -54 c20 -37 36 -55 52 -57 12 -2 22 -1 22 1 0 3 -16 33 -35 67 -19
34 -35 67 -35 74 0 7 14 25 30 41 34 33 38 45 13 45 -10 0 -39 -23 -65 -52
l-47 -53 -1 53 c0 45 -3 52 -20 52 -19 0 -20 -7 -20 -115z"/>
<path d="M1100 115 c0 -108 1 -115 20 -115 19 0 20 7 20 115 0 108 -1 115 -20
115 -19 0 -20 -7 -20 -115z"/>
<path d="M1231 217 c-33 -17 -45 -39 -38 -69 7 -26 34 -41 94 -53 39 -8 49
-21 33 -40 -15 -18 -60 -19 -95 -3 -17 8 -29 8 -36 1 -15 -15 24 -44 69 -50
111 -15 156 100 49 127 -54 13 -72 24 -72 41 0 20 63 24 84 5 13 -12 20 -13
29 -4 18 18 15 26 -18 43 -35 18 -67 19 -99 2z"/>
<path d="M1390 210 c0 -16 7 -20 30 -20 l30 0 0 -95 c0 -88 1 -95 20 -95 19 0
20 7 20 95 l0 95 30 0 c23 0 30 4 30 20 0 18 -7 20 -80 20 -73 0 -80 -2 -80
-20z"/>
</g>
</svg>
