<?xml version="1.0" standalone="no"?>
<!DOCTYPE svg PUBLIC "-//W3C//DTD SVG 20010904//EN"
 "http://www.w3.org/TR/2001/REC-SVG-20010904/DTD/svg10.dtd">
<svg version="1.0" xmlns="http://www.w3.org/2000/svg"
 width="832.000000pt" height="54.000000pt" viewBox="0 0 832.000000 54.000000"
 preserveAspectRatio="xMidYMid meet">

<g transform="translate(0.000000,54.000000) scale(0.100000,-0.100000)"
fill="#000000" stroke="none">
<path d="M793 510 c-22 -13 -30 -24 -27 -37 7 -24 -158 -423 -175 -423 -4 0
-16 -7 -27 -15 -17 -13 -11 -14 61 -14 79 0 80 0 50 16 -16 8 -32 17 -34 19
-2 1 9 35 24 73 l27 71 83 0 83 0 27 -71 c26 -67 26 -71 10 -90 -18 -19 -17
-19 76 -19 91 1 93 1 68 17 -14 9 -31 25 -38 36 -16 24 -138 333 -160 404
l-17 52 -31 -19z m25 -192 l31 -88 -74 0 -74 0 25 68 c41 112 47 123 54 115 4
-4 21 -47 38 -95z"/>
<path d="M1160 521 l-55 -6 33 -12 32 -12 0 -138 c0 -76 -3 -175 -7 -221 -5
-76 -8 -84 -32 -97 -24 -13 -17 -14 79 -14 104 0 105 1 73 16 l-33 17 0 228 0
228 41 0 c34 0 47 -6 76 -35 34 -34 35 -38 31 -90 -5 -62 -24 -89 -80 -115
l-37 -17 58 -89 c66 -102 85 -121 138 -140 77 -27 76 -20 -18 118 l-89 133 45
22 c55 29 75 57 75 108 0 83 -52 117 -185 121 -49 1 -115 -1 -145 -5z"/>
<path d="M1630 521 l-55 -6 33 -12 32 -12 0 -138 c0 -76 -3 -175 -7 -221 -5
-76 -8 -84 -32 -97 -24 -13 -17 -14 79 -14 104 0 105 1 73 16 l-33 17 0 228 0
228 41 0 c34 0 47 -6 76 -35 34 -34 35 -38 31 -90 -5 -62 -24 -89 -80 -115
l-37 -17 58 -89 c66 -102 85 -121 138 -140 77 -27 76 -20 -18 118 l-89 133 45
22 c55 29 75 57 75 108 0 83 -52 117 -185 121 -49 1 -115 -1 -145 -5z"/>
<path d="M2273 510 c-22 -13 -30 -24 -27 -37 7 -24 -158 -423 -175 -423 -4 0
-16 -7 -27 -15 -17 -13 -11 -14 61 -14 79 0 80 0 50 16 -16 8 -32 17 -34 19
-2 1 9 35 24 73 l27 71 83 0 83 0 27 -71 c26 -67 26 -71 10 -90 -18 -19 -17
-19 76 -19 91 1 93 1 68 17 -14 9 -31 25 -38 36 -16 24 -138 333 -160 404
l-17 52 -31 -19z m25 -192 l31 -88 -74 0 -74 0 25 68 c41 112 47 123 54 115 4
-4 21 -47 38 -95z"/>
<path d="M2575 472 c-4 -30 -4 -56 -2 -59 3 -2 17 16 32 41 l27 46 59 0 59 0
0 -224 0 -223 -37 -16 c-37 -15 -36 -15 82 -16 117 0 119 0 83 15 l-36 15 -7
82 c-3 45 -5 145 -3 222 l3 140 65 3 66 3 13 -48 c14 -53 22 -46 35 32 l7 40
-220 0 -219 0 -7 -53z"/>
<path d="M4010 520 c-152 -5 -162 -6 -132 -19 l32 -13 0 -167 c0 -91 -3 -189
-6 -217 -6 -45 -10 -54 -38 -67 -29 -15 -21 -16 151 -16 l182 -1 10 38 c18 64
12 69 -28 24 l-37 -43 -75 3 -74 3 -3 108 -3 107 79 0 c70 0 102 9 102 30 0 3
-40 3 -90 2 l-90 -4 0 106 0 106 73 0 74 0 18 -41 c21 -45 29 -39 40 29 5 32
4 42 -7 40 -7 -1 -87 -5 -178 -8z"/>
<path d="M4592 512 c-116 -42 -177 -127 -177 -247 1 -108 48 -181 147 -225
137 -60 288 -17 354 102 24 45 28 64 28 128 0 57 -5 85 -21 116 -60 114 -207
170 -331 126z m132 -6 c73 -30 126 -134 126 -246 0 -173 -97 -273 -213 -222
-88 39 -134 141 -125 273 7 95 39 157 98 187 51 26 69 27 114 8z"/>
<path d="M5166 520 c-145 -5 -157 -6 -133 -19 l27 -14 -1 -201 c0 -111 -4
-209 -8 -220 -4 -10 -18 -24 -32 -32 -21 -12 -12 -13 86 -13 109 1 110 1 73
16 l-38 16 0 102 0 103 78 -5 c67 -5 79 -3 94 14 17 18 15 19 -77 15 l-95 -4
0 111 0 111 73 0 74 0 18 -40 c21 -48 30 -43 39 23 6 36 4 47 -6 45 -7 -1 -85
-5 -172 -8z"/>
<path d="M5545 472 c-4 -30 -4 -56 -2 -59 3 -2 17 16 32 41 l27 46 59 0 59 0
0 -224 0 -223 -37 -16 c-37 -15 -36 -15 82 -16 117 0 119 0 83 15 l-36 15 -7
82 c-3 45 -5 145 -3 222 l3 140 65 3 66 3 13 -48 c14 -53 22 -46 35 32 l7 40
-220 0 -219 0 -7 -53z"/>
<path d="M7637 519 c-192 -45 -277 -256 -166 -408 56 -76 184 -116 285 -88 44
11 54 11 73 -1 13 -9 26 -11 31 -6 10 10 40 173 40 217 0 26 -1 27 -57 27 -32
0 -82 -3 -111 -7 -66 -8 -49 -23 26 -23 l54 0 -7 -87 c-4 -49 -11 -92 -15 -97
-5 -5 -38 -7 -73 -4 -115 7 -185 80 -194 202 -12 150 70 257 200 260 85 1 101
-7 115 -59 7 -25 16 -44 21 -40 10 6 34 105 27 112 -2 3 -14 0 -25 -7 -16 -8
-33 -7 -73 5 -57 17 -93 18 -151 4z"/>
<path d="M8093 519 c-73 -21 -117 -102 -94 -172 15 -44 39 -65 131 -116 85
-48 100 -63 100 -104 0 -60 -48 -97 -128 -97 -47 0 -57 11 -67 67 -9 59 -20
61 -41 7 -20 -53 -19 -55 60 -79 87 -26 156 -14 213 39 30 27 36 41 40 82 6
70 -16 99 -121 158 -133 75 -153 116 -85 179 49 45 115 35 139 -23 7 -16 16
-30 20 -30 8 0 31 93 24 99 -2 2 -15 -1 -28 -7 -17 -7 -35 -8 -58 -1 -39 11
-62 10 -105 -2z"/>
<path d="M27 514 c-4 -4 7 -21 24 -38 l31 -31 -6 -190 c-5 -159 -8 -192 -22
-200 -53 -33 -51 -34 31 -35 l80 0 -32 20 -33 20 0 176 0 175 106 -126 c59
-70 141 -162 183 -204 l76 -76 6 220 c4 121 7 229 8 241 1 12 14 27 34 37 l32
16 -80 0 -80 1 33 -21 32 -21 0 -171 -1 -172 -40 45 c-74 82 -260 302 -272
321 -9 14 -24 19 -58 19 -25 0 -49 -3 -52 -6z"/>
<path d="M3104 499 l26 -20 0 -168 c0 -220 -5 -258 -39 -276 -24 -13 -17 -14
79 -14 104 0 105 1 73 16 l-33 17 0 215 0 216 28 17 c27 17 26 17 -67 18 l-94
0 27 -21z"/>
<path d="M3332 503 c25 -16 72 -119 210 -463 l14 -35 17 26 c9 13 48 101 86
194 101 248 106 258 137 277 l29 17 -59 1 c-49 0 -57 -2 -47 -14 7 -9 9 -25 5
-43 -7 -25 -85 -245 -114 -318 -11 -29 -14 -24 -86 155 -59 146 -73 189 -64
203 9 16 4 17 -72 17 -82 -1 -83 -1 -56 -17z"/>
<path d="M6073 499 c27 -21 27 -21 27 -143 0 -68 -3 -164 -7 -215 -6 -86 -8
-93 -32 -106 -24 -13 -19 -14 63 -15 86 0 88 1 73 18 -14 15 -17 40 -17 125
l0 107 98 0 c53 0 107 3 120 6 22 6 22 6 22 -104 0 -102 -2 -113 -22 -132
l-22 -20 95 1 c93 0 94 0 62 16 l-33 17 0 215 0 216 28 17 c27 17 26 17 -57
18 -81 0 -83 -1 -68 -18 13 -15 17 -39 17 -110 l0 -92 -120 0 -120 0 0 92 c0
71 4 95 17 110 15 17 13 18 -68 18 l-84 -1 28 -20z"/>
<path d="M6644 499 l26 -20 0 -168 c0 -220 -5 -258 -39 -276 -24 -13 -17 -14
79 -14 104 0 105 1 73 16 l-33 17 0 215 0 216 28 17 c27 17 26 17 -67 18 l-94
0 27 -21z"/>
<path d="M6877 514 c-4 -4 7 -21 24 -38 l31 -31 -6 -190 c-5 -159 -8 -192 -22
-200 -53 -33 -51 -34 31 -35 l80 0 -32 20 -33 20 0 176 0 175 106 -126 c59
-70 141 -162 183 -204 l76 -76 6 220 c4 121 7 229 8 241 1 12 14 27 34 37 l32
16 -80 0 -80 1 33 -21 32 -21 0 -171 -1 -172 -40 45 c-74 82 -260 302 -272
321 -9 14 -24 19 -58 19 -25 0 -49 -3 -52 -6z"/>
</g>
</svg>
