<?xml version="1.0" standalone="no"?>
<!DOCTYPE svg PUBLIC "-//W3C//DTD SVG 20010904//EN"
 "http://www.w3.org/TR/2001/REC-SVG-20010904/DTD/svg10.dtd">
<svg version="1.0" xmlns="http://www.w3.org/2000/svg"
 width="526.000000pt" height="140.000000pt" viewBox="0 0 526.000000 140.000000"
 preserveAspectRatio="xMidYMid meet">

<g transform="translate(0.000000,140.000000) scale(0.100000,-0.100000)"
fill="#000000" stroke="none">
<path d="M1165 1383 c-53 -6 -68 -21 -27 -29 l32 -6 -1 -197 c0 -108 -4 -204
-8 -215 -4 -10 -18 -24 -32 -32 -21 -12 -13 -13 81 -13 104 0 105 1 73 16
l-33 17 0 223 0 223 30 0 c68 0 110 -45 110 -116 0 -51 -25 -91 -71 -114 -22
-12 -38 -24 -36 -28 98 -167 131 -205 193 -222 25 -7 47 -11 50 -8 2 3 -31 59
-76 124 -44 66 -80 124 -80 130 0 6 14 17 30 24 79 33 106 126 52 180 -46 46
-131 58 -287 43z"/>
<path d="M1615 1383 c-53 -6 -68 -21 -27 -29 l32 -6 -1 -197 c0 -108 -4 -204
-8 -215 -4 -10 -18 -24 -32 -32 -21 -12 -13 -13 81 -13 104 0 105 1 73 16
l-33 17 0 223 0 223 30 0 c68 0 110 -45 110 -116 0 -51 -25 -91 -71 -114 -22
-12 -38 -24 -36 -28 98 -167 131 -205 193 -222 25 -7 47 -11 50 -8 2 3 -31 59
-76 124 -44 66 -80 124 -80 130 0 6 14 17 30 24 79 33 106 126 52 180 -46 46
-131 58 -287 43z"/>
<path d="M2540 1330 l1 -55 25 43 c26 42 26 42 85 42 l59 0 0 -219 0 -218 -37
-16 c-37 -15 -36 -15 77 -15 113 0 114 0 78 15 l-38 16 0 218 0 219 64 0 63 0
13 -47 c15 -50 21 -44 34 32 l7 40 -216 0 -215 0 0 -55z"/>
<path d="M3945 1380 c-136 -4 -155 -7 -132 -17 l27 -13 0 -210 0 -210 -32 -20
-33 -20 175 2 175 3 12 49 c7 28 11 51 9 53 -2 2 -18 -17 -37 -41 l-34 -45
-77 -1 -78 0 0 111 0 110 76 -2 c61 -2 78 1 92 16 16 16 13 17 -75 10 l-93 -7
0 106 0 106 73 0 74 0 19 -42 19 -42 6 29 c10 44 10 85 2 83 -5 -1 -80 -5
-168 -8z"/>
<path d="M4514 1379 c-61 -18 -127 -71 -156 -128 -35 -66 -38 -162 -9 -227 55
-121 235 -178 360 -115 50 26 107 91 120 138 17 59 13 153 -8 198 -48 106
-190 168 -307 134z m120 -19 c79 -38 123 -146 113 -271 -15 -184 -153 -258
-261 -139 -103 114 -80 364 38 416 43 18 63 17 110 -6z"/>
<path d="M5065 1380 c-136 -4 -155 -7 -132 -17 l27 -13 0 -213 0 -213 -32 -17
c-32 -15 -31 -16 77 -16 109 0 110 0 73 16 l-38 15 0 100 0 100 75 -7 c71 -6
105 1 105 24 0 3 -40 4 -90 3 l-90 -4 0 111 0 111 74 0 73 0 19 -47 18 -48 7
30 c9 43 10 95 2 93 -5 -1 -80 -5 -168 -8z"/>
<path d="M48 1375 c-3 -3 8 -20 23 -36 28 -30 29 -36 29 -123 0 -50 -3 -135
-7 -190 -6 -96 -7 -99 -37 -117 l-31 -19 80 0 80 0 -32 20 -33 20 0 172 0 173
28 -35 c63 -81 264 -310 294 -335 l33 -28 6 233 c3 147 9 235 16 237 6 2 19
10 29 18 17 13 11 14 -56 15 l-75 0 33 -20 32 -20 0 -167 -1 -168 -46 50 c-57
62 -240 280 -256 306 -9 14 -23 19 -58 19 -25 0 -48 -2 -51 -5z"/>
<path d="M802 1368 c-15 -8 -21 -17 -17 -29 4 -10 -25 -92 -65 -190 -88 -213
-89 -216 -126 -239 l-29 -20 80 0 80 0 -32 20 -32 19 18 53 c34 95 24 88 115
88 l81 0 27 -74 c24 -68 25 -75 10 -90 -15 -15 -10 -16 71 -16 l87 0 -34 33
c-27 25 -49 72 -110 230 -42 109 -76 204 -76 212 0 17 -16 18 -48 3z m28 -169
c18 -49 30 -92 27 -95 -2 -3 -34 -4 -69 -2 l-65 3 35 93 c19 50 36 92 37 92 1
0 17 -41 35 -91z"/>
<path d="M2232 1368 c-15 -8 -21 -17 -17 -29 4 -10 -25 -92 -65 -190 -88 -213
-89 -216 -126 -239 l-29 -20 80 0 80 0 -32 20 -32 19 18 53 c34 95 24 88 115
88 l81 0 27 -74 c24 -68 25 -75 10 -90 -15 -15 -10 -16 71 -16 l87 0 -34 33
c-27 25 -49 72 -110 230 -42 109 -76 204 -76 212 0 17 -16 18 -48 3z m28 -169
c18 -49 30 -92 27 -95 -2 -3 -34 -4 -69 -2 l-65 3 35 93 c19 50 36 92 37 92 1
0 17 -41 35 -91z"/>
<path d="M3053 1364 l27 -15 0 -209 0 -210 -32 -20 -33 -20 105 1 c104 0 105
0 73 16 l-33 17 0 212 0 213 28 15 c26 14 22 15 -68 15 -90 0 -94 -1 -67 -15z"/>
<path d="M3268 1364 c29 -20 37 -36 133 -271 45 -109 83 -200 85 -202 12 -13
40 42 108 211 92 229 99 244 134 262 27 15 26 15 -31 16 -52 0 -56 -2 -46 -17
8 -14 -1 -51 -44 -173 -30 -85 -59 -166 -65 -180 l-10 -25 -15 35 c-76 178
-127 318 -122 338 5 21 3 22 -72 22 -73 0 -76 -1 -55 -16z"/>
<path d="M10 470 l1 -55 25 43 c26 42 26 42 85 42 l59 0 0 -219 0 -218 -38
-16 c-36 -15 -35 -15 78 -15 113 0 114 0 78 15 l-38 16 0 218 0 219 64 0 63 0
13 -47 c15 -50 21 -44 34 32 l7 40 -216 0 -215 0 0 -55z"/>
<path d="M2045 516 c-131 -41 -195 -126 -195 -255 0 -118 73 -205 198 -232 46
-11 64 -10 112 2 50 13 60 13 79 0 13 -8 26 -10 31 -5 10 10 40 170 40 210 0
24 -2 24 -92 23 -122 -1 -157 -13 -65 -23 l68 -8 -3 -86 -3 -87 -57 -3 c-161
-8 -257 139 -206 312 26 87 137 158 222 141 59 -12 64 -16 76 -60 7 -25 16
-45 20 -45 8 0 34 110 27 117 -3 2 -15 0 -26 -7 -16 -8 -32 -7 -66 5 -54 18
-105 18 -160 1z"/>
<path d="M2473 511 c-49 -23 -73 -56 -79 -108 -8 -59 20 -99 108 -152 102 -62
118 -77 118 -117 0 -47 -35 -84 -87 -91 -70 -9 -90 1 -97 49 -11 70 -21 76
-41 23 -16 -40 -16 -48 -4 -56 22 -14 110 -39 139 -39 72 0 143 49 162 111 22
75 -9 120 -127 185 -106 59 -129 101 -85 157 22 28 74 43 109 32 12 -3 30 -23
40 -42 20 -40 26 -36 39 25 l10 41 -28 -14 c-25 -13 -32 -13 -57 0 -37 20 -69
19 -120 -4z"/>
<path d="M523 502 l27 -17 0 -200 c0 -210 -2 -220 -45 -243 -16 -9 -1 -11 69
-12 86 0 88 1 73 18 -14 15 -17 40 -17 120 l0 102 93 0 c50 0 102 3 115 6 22
6 22 5 22 -102 0 -86 -3 -111 -17 -126 -15 -17 -13 -18 68 -18 80 1 83 1 57
16 l-28 15 0 214 0 214 28 15 c26 15 23 15 -57 16 -81 0 -83 -1 -68 -18 13
-15 17 -39 17 -110 l0 -92 -115 0 -115 0 0 92 c0 71 4 95 17 110 15 17 13 18
-68 18 -83 -1 -84 -1 -56 -18z"/>
<path d="M1083 504 l27 -15 0 -209 0 -210 -32 -20 -33 -20 105 1 c104 0 105 0
73 16 l-33 17 0 212 0 213 28 15 c26 14 22 15 -68 15 -90 0 -94 -1 -67 -15z"/>
<path d="M1308 515 c-3 -3 8 -20 23 -36 28 -30 29 -36 29 -123 0 -50 -3 -135
-7 -190 -6 -96 -7 -99 -37 -117 l-31 -19 80 0 80 0 -32 20 -33 20 0 172 0 173
28 -35 c63 -81 264 -310 294 -335 l33 -28 6 233 c3 147 9 235 16 237 6 2 19
10 29 18 17 13 11 14 -56 15 l-75 0 33 -20 32 -20 0 -167 -1 -168 -46 50 c-57
62 -240 280 -256 306 -9 14 -23 19 -58 19 -25 0 -48 -2 -51 -5z"/>
</g>
</svg>
